# Blender v2.90.1 OBJ File: 'palya_alap.blend'
# www.blender.org
mtllib map_model.mtl
o Map.001_Plane.014
v -2.723332 0.000000 1.223679
v 2.723332 0.000000 1.223679
v -2.723332 0.000000 -1.223592
v 2.723332 0.000000 -1.223592
v -2.520302 0.000000 -1.008091
v -2.520302 0.000000 1.008091
v 2.520302 0.000000 1.008091
v 2.520301 0.000000 -1.008091
v -2.520302 0.300247 1.008091
v 2.520302 0.300247 1.008091
v 2.520301 0.300247 -1.008091
v -2.520302 0.300247 -1.008091
v -2.723332 0.300724 1.223679
v 2.723332 0.300724 1.223679
v 2.723332 0.300724 -1.223592
v -2.723332 0.300724 -1.223592
vt 0.752479 0.233149
vt 0.789505 0.768949
vt 0.752112 0.768832
vt 0.124285 0.846647
vt 0.124340 0.766872
vt 0.124707 0.231188
vt 0.024614 0.173597
vt 0.061621 0.823932
vt 0.024168 0.823815
vt 0.124762 0.151415
vt 0.777860 0.096174
vt 0.752534 0.153377
vt 0.087314 0.231072
vt 0.062067 0.173714
vt 0.777915 0.016274
vt 0.099515 0.094056
vt 0.099570 0.014157
vt 0.752057 0.848605
vt 0.098959 0.903826
vt 0.852205 0.826401
vt 0.815198 0.176065
vt 0.852651 0.176182
vt 0.789873 0.233265
vt 0.814752 0.826284
vt 0.777249 0.985840
vt 0.098905 0.983726
vt 0.086946 0.766755
vt 0.777304 0.905941
vn -1.0000 0.0000 0.0000
vn 0.0000 0.0000 1.0000
vn 0.0000 1.0000 0.0000
vn 0.0000 0.0000 -1.0000
vn 0.0000 1.0000 -0.0022
vn 1.0000 0.0000 0.0000
vn 0.0024 1.0000 0.0000
vn 0.0000 1.0000 0.0022
vn -0.0024 1.0000 0.0000
usemtl Material.008
s off
f 7/1/1 11/2/1 8/3/1
f 8/3/2 12/4/2 5/5/2
f 7/1/3 5/5/3 6/6/3
f 1/7/1 16/8/1 3/9/1
f 9/10/4 7/1/4 6/6/4
f 9/10/5 14/11/5 10/12/5
f 5/5/6 9/13/6 6/6/6
f 9/13/7 16/8/7 13/14/7
f 2/15/2 13/16/2 1/17/2
f 11/18/8 16/19/8 12/4/8
f 4/20/6 14/21/6 2/22/6
f 10/23/9 15/24/9 11/2/9
f 16/19/4 4/25/4 3/26/4
f 7/1/1 10/23/1 11/2/1
f 8/3/2 11/18/2 12/4/2
f 7/1/3 8/3/3 5/5/3
f 1/7/1 13/14/1 16/8/1
f 9/10/4 10/12/4 7/1/4
f 9/10/5 13/16/5 14/11/5
f 5/5/6 12/27/6 9/13/6
f 9/13/7 12/27/7 16/8/7
f 2/15/2 14/11/2 13/16/2
f 11/18/8 15/28/8 16/19/8
f 4/20/6 15/24/6 14/21/6
f 10/23/9 14/21/9 15/24/9
f 16/19/4 15/28/4 4/25/4
